/* XPM */
static char * number2_xpm[] = {
"90 111 3 1",
" 	c 0",
".	c 0",
"+	c #FA7D00",
"                                                                                          ",
"          ............................................................                    ",
"          ............................................................                    ",
"          ............................................................                    ",
"          ............................................................                    ",
"          ............................................................                    ",
"          ............................................................                    ",
"          ............................................................                    ",
"          ............................................................                    ",
"          ............................................................                    ",
"          ............................................................                    ",
"....................++++++++++++++++++++++++++++++++++++++++....................          ",
"....................++++++++++++++++++++++++++++++++++++++++....................          ",
"....................++++++++++++++++++++++++++++++++++++++++....................          ",
"....................++++++++++++++++++++++++++++++++++++++++....................          ",
"....................++++++++++++++++++++++++++++++++++++++++....................          ",
"....................++++++++++++++++++++++++++++++++++++++++....................          ",
"....................++++++++++++++++++++++++++++++++++++++++....................          ",
"....................++++++++++++++++++++++++++++++++++++++++....................          ",
"....................++++++++++++++++++++++++++++++++++++++++....................          ",
"....................++++++++++++++++++++++++++++++++++++++++....................          ",
"..........++++++++++++++++++++++++++++++++++++++++++++++++++++++++++++....................",
"..........++++++++++++++++++++++++++++++++++++++++++++++++++++++++++++....................",
"..........++++++++++++++++++++++++++++++++++++++++++++++++++++++++++++....................",
"..........++++++++++++++++++++++++++++++++++++++++++++++++++++++++++++....................",
"..........++++++++++++++++++++++++++++++++++++++++++++++++++++++++++++....................",
"..........++++++++++++++++++++++++++++++++++++++++++++++++++++++++++++....................",
"..........++++++++++++++++++++++++++++++++++++++++++++++++++++++++++++....................",
"..........++++++++++++++++++++++++++++++++++++++++++++++++++++++++++++....................",
"..........++++++++++++++++++++++++++++++++++++++++++++++++++++++++++++....................",
"..........++++++++++++++++++++++++++++++++++++++++++++++++++++++++++++....................",
"..........++++++++++++++++++++....................++++++++++++++++++++....................",
"..........++++++++++++++++++++....................++++++++++++++++++++....................",
"..........++++++++++++++++++++....................++++++++++++++++++++....................",
"..........++++++++++++++++++++....................++++++++++++++++++++....................",
"..........++++++++++++++++++++....................++++++++++++++++++++....................",
"..........++++++++++++++++++++....................++++++++++++++++++++....................",
"..........++++++++++++++++++++....................++++++++++++++++++++....................",
"..........++++++++++++++++++++....................++++++++++++++++++++....................",
"..........++++++++++++++++++++....................++++++++++++++++++++....................",
"..........++++++++++++++++++++....................++++++++++++++++++++....................",
"..........++++++++++++++++++++..........++++++++++++++++++++++++++++++....................",
"..........++++++++++++++++++++..........++++++++++++++++++++++++++++++....................",
"..........++++++++++++++++++++..........++++++++++++++++++++++++++++++....................",
"..........++++++++++++++++++++..........++++++++++++++++++++++++++++++....................",
"..........++++++++++++++++++++..........++++++++++++++++++++++++++++++....................",
"..........++++++++++++++++++++..........++++++++++++++++++++++++++++++....................",
"..........++++++++++++++++++++..........++++++++++++++++++++++++++++++....................",
"..........++++++++++++++++++++..........++++++++++++++++++++++++++++++....................",
"..........++++++++++++++++++++..........++++++++++++++++++++++++++++++....................",
"..........++++++++++++++++++++..........++++++++++++++++++++++++++++++....................",
"..............................++++++++++++++++++++++++++++++..............................",
"..............................++++++++++++++++++++++++++++++..............................",
"..............................++++++++++++++++++++++++++++++..............................",
"..............................++++++++++++++++++++++++++++++..............................",
"..............................++++++++++++++++++++++++++++++..............................",
"..............................++++++++++++++++++++++++++++++..............................",
"..............................++++++++++++++++++++++++++++++..............................",
"..............................++++++++++++++++++++++++++++++..............................",
"..............................++++++++++++++++++++++++++++++..............................",
"..............................++++++++++++++++++++++++++++++..............................",
"....................++++++++++++++++++++++++++++++........................................",
"....................++++++++++++++++++++++++++++++........................................",
"....................++++++++++++++++++++++++++++++........................................",
"....................++++++++++++++++++++++++++++++........................................",
"....................++++++++++++++++++++++++++++++........................................",
"....................++++++++++++++++++++++++++++++........................................",
"....................++++++++++++++++++++++++++++++........................................",
"....................++++++++++++++++++++++++++++++........................................",
"....................++++++++++++++++++++++++++++++........................................",
"....................++++++++++++++++++++++++++++++........................................",
"..........++++++++++++++++++++++++++++++++++++++++++++++++++++++++++++....................",
"..........++++++++++++++++++++++++++++++++++++++++++++++++++++++++++++....................",
"..........++++++++++++++++++++++++++++++++++++++++++++++++++++++++++++....................",
"..........++++++++++++++++++++++++++++++++++++++++++++++++++++++++++++....................",
"..........++++++++++++++++++++++++++++++++++++++++++++++++++++++++++++....................",
"..........++++++++++++++++++++++++++++++++++++++++++++++++++++++++++++....................",
"..........++++++++++++++++++++++++++++++++++++++++++++++++++++++++++++....................",
"..........++++++++++++++++++++++++++++++++++++++++++++++++++++++++++++....................",
"..........++++++++++++++++++++++++++++++++++++++++++++++++++++++++++++....................",
"..........++++++++++++++++++++++++++++++++++++++++++++++++++++++++++++....................",
"..........++++++++++++++++++++++++++++++++++++++++++++++++++++++++++++....................",
"..........++++++++++++++++++++++++++++++++++++++++++++++++++++++++++++....................",
"..........++++++++++++++++++++++++++++++++++++++++++++++++++++++++++++....................",
"..........++++++++++++++++++++++++++++++++++++++++++++++++++++++++++++....................",
"..........++++++++++++++++++++++++++++++++++++++++++++++++++++++++++++....................",
"..........++++++++++++++++++++++++++++++++++++++++++++++++++++++++++++....................",
"..........++++++++++++++++++++++++++++++++++++++++++++++++++++++++++++....................",
"..........++++++++++++++++++++++++++++++++++++++++++++++++++++++++++++....................",
"..........++++++++++++++++++++++++++++++++++++++++++++++++++++++++++++....................",
"..........++++++++++++++++++++++++++++++++++++++++++++++++++++++++++++....................",
"..........................................................................................",
"..........................................................................................",
"..........................................................................................",
"..........................................................................................",
"..........................................................................................",
"..........................................................................................",
"..........................................................................................",
"..........................................................................................",
"..........................................................................................",
"..........................................................................................",
"          ................................................................................",
"          ................................................................................",
"          ................................................................................",
"          ................................................................................",
"          ................................................................................",
"          ................................................................................",
"          ................................................................................",
"          ................................................................................",
"          ................................................................................",
"          ................................................................................"};
