/* XPM */
static char * number1_xpm[] = {
"90 110 3 1",
" 	c 0",
".	c 0",
"+	c #FA7D00",
"                    ..................................................                    ",
"                    ..................................................                    ",
"                    ..................................................                    ",
"                    ..................................................                    ",
"                    ..................................................                    ",
"                    ..................................................                    ",
"                    ..................................................                    ",
"                    ..................................................                    ",
"                    ..................................................                    ",
"                    ..................................................                    ",
"          ....................++++++++++++++++++++++++++++++....................          ",
"          ....................++++++++++++++++++++++++++++++....................          ",
"          ....................++++++++++++++++++++++++++++++....................          ",
"          ....................++++++++++++++++++++++++++++++....................          ",
"          ....................++++++++++++++++++++++++++++++....................          ",
"          ....................++++++++++++++++++++++++++++++....................          ",
"          ....................++++++++++++++++++++++++++++++....................          ",
"          ....................++++++++++++++++++++++++++++++....................          ",
"          ....................++++++++++++++++++++++++++++++....................          ",
"          ....................++++++++++++++++++++++++++++++....................          ",
"          ..........++++++++++++++++++++++++++++++++++++++++....................          ",
"          ..........++++++++++++++++++++++++++++++++++++++++....................          ",
"          ..........++++++++++++++++++++++++++++++++++++++++....................          ",
"          ..........++++++++++++++++++++++++++++++++++++++++....................          ",
"          ..........++++++++++++++++++++++++++++++++++++++++....................          ",
"          ..........++++++++++++++++++++++++++++++++++++++++....................          ",
"          ..........++++++++++++++++++++++++++++++++++++++++....................          ",
"          ..........++++++++++++++++++++++++++++++++++++++++....................          ",
"          ..........++++++++++++++++++++++++++++++++++++++++....................          ",
"          ..........++++++++++++++++++++++++++++++++++++++++....................          ",
"          ..........++++++++++++++++++++++++++++++++++++++++....................          ",
"          ..........++++++++++++++++++++++++++++++++++++++++....................          ",
"          ..........++++++++++++++++++++++++++++++++++++++++....................          ",
"          ..........++++++++++++++++++++++++++++++++++++++++....................          ",
"          ..........++++++++++++++++++++++++++++++++++++++++....................          ",
"          ..........++++++++++++++++++++++++++++++++++++++++....................          ",
"          ..........++++++++++++++++++++++++++++++++++++++++....................          ",
"          ..........++++++++++++++++++++++++++++++++++++++++....................          ",
"          ..........++++++++++++++++++++++++++++++++++++++++....................          ",
"          ..........++++++++++++++++++++++++++++++++++++++++....................          ",
"          ....................++++++++++++++++++++++++++++++....................          ",
"          ....................++++++++++++++++++++++++++++++....................          ",
"          ....................++++++++++++++++++++++++++++++....................          ",
"          ....................++++++++++++++++++++++++++++++....................          ",
"          ....................++++++++++++++++++++++++++++++....................          ",
"          ....................++++++++++++++++++++++++++++++....................          ",
"          ....................++++++++++++++++++++++++++++++....................          ",
"          ....................++++++++++++++++++++++++++++++....................          ",
"          ....................++++++++++++++++++++++++++++++....................          ",
"          ....................++++++++++++++++++++++++++++++....................          ",
"                    ..........++++++++++++++++++++++++++++++....................          ",
"                    ..........++++++++++++++++++++++++++++++....................          ",
"                    ..........++++++++++++++++++++++++++++++....................          ",
"                    ..........++++++++++++++++++++++++++++++....................          ",
"                    ..........++++++++++++++++++++++++++++++....................          ",
"                    ..........++++++++++++++++++++++++++++++....................          ",
"                    ..........++++++++++++++++++++++++++++++....................          ",
"                    ..........++++++++++++++++++++++++++++++....................          ",
"                    ..........++++++++++++++++++++++++++++++....................          ",
"                    ..........++++++++++++++++++++++++++++++....................          ",
"..............................++++++++++++++++++++++++++++++..............................",
"..............................++++++++++++++++++++++++++++++..............................",
"..............................++++++++++++++++++++++++++++++..............................",
"..............................++++++++++++++++++++++++++++++..............................",
"..............................++++++++++++++++++++++++++++++..............................",
"..............................++++++++++++++++++++++++++++++..............................",
"..............................++++++++++++++++++++++++++++++..............................",
"..............................++++++++++++++++++++++++++++++..............................",
"..............................++++++++++++++++++++++++++++++..............................",
"..............................++++++++++++++++++++++++++++++..............................",
"..........++++++++++++++++++++++++++++++++++++++++++++++++++++++++++++....................",
"..........++++++++++++++++++++++++++++++++++++++++++++++++++++++++++++....................",
"..........++++++++++++++++++++++++++++++++++++++++++++++++++++++++++++....................",
"..........++++++++++++++++++++++++++++++++++++++++++++++++++++++++++++....................",
"..........++++++++++++++++++++++++++++++++++++++++++++++++++++++++++++....................",
"..........++++++++++++++++++++++++++++++++++++++++++++++++++++++++++++....................",
"..........++++++++++++++++++++++++++++++++++++++++++++++++++++++++++++....................",
"..........++++++++++++++++++++++++++++++++++++++++++++++++++++++++++++....................",
"..........++++++++++++++++++++++++++++++++++++++++++++++++++++++++++++....................",
"..........++++++++++++++++++++++++++++++++++++++++++++++++++++++++++++....................",
"..........++++++++++++++++++++++++++++++++++++++++++++++++++++++++++++....................",
"..........++++++++++++++++++++++++++++++++++++++++++++++++++++++++++++....................",
"..........++++++++++++++++++++++++++++++++++++++++++++++++++++++++++++....................",
"..........++++++++++++++++++++++++++++++++++++++++++++++++++++++++++++....................",
"..........++++++++++++++++++++++++++++++++++++++++++++++++++++++++++++....................",
"..........++++++++++++++++++++++++++++++++++++++++++++++++++++++++++++....................",
"..........++++++++++++++++++++++++++++++++++++++++++++++++++++++++++++....................",
"..........++++++++++++++++++++++++++++++++++++++++++++++++++++++++++++....................",
"..........++++++++++++++++++++++++++++++++++++++++++++++++++++++++++++....................",
"..........++++++++++++++++++++++++++++++++++++++++++++++++++++++++++++....................",
"..........................................................................................",
"..........................................................................................",
"..........................................................................................",
"..........................................................................................",
"..........................................................................................",
"..........................................................................................",
"..........................................................................................",
"..........................................................................................",
"..........................................................................................",
"..........................................................................................",
"          ................................................................................",
"          ................................................................................",
"          ................................................................................",
"          ................................................................................",
"          ................................................................................",
"          ................................................................................",
"          ................................................................................",
"          ................................................................................",
"          ................................................................................",
"          ................................................................................"};
