/* XPM */
static char *result[] = {
/* columns rows colors chars-per-pixel */
"32 32 6 1 ",
"  c black",
". c #323232",
"X c #790000",
"o c #7B7B7B",
"O c white",
"+ c None",
/* pixels */
"++++++++++++++++++++++++++++++++",
"++++++++++++++++++++++++++++++++",
"++++++++++++++++++++++++++++++++",
"++++++++++++++++++++++++++++++++",
"++++++++++++++++++++++++++++++++",
"++++++++++++++++++++++++++++++++",
"+++++++++++++++X++++++++++++++++",
"+++++++++++++  X  ++++++++++++++",
"++++++++++X  ooo..  X+++++++++++",
"+++++++++XXoooo.....XX++++++++++",
"+++++++++ ooooO O.... ++++++++++",
"+++++++++ oooOoooO... ++++++++++",
"++++++++ oooOO   OO... +++++++++",
"++++++++ ooOo  O  oO.. +++++++++",
"+++++++XXoo o OoO o o.XX++++++++",
"++++++++ .oOo  O  oOoo +++++++++",
"++++++++ ...OO   OOooo +++++++++",
"+++++++++ ...OoooOooo ++++++++++",
"+++++++++ ....O Ooooo ++++++++++",
"+++++++++XX.....ooooXX++++++++++",
"++++++++++X  ..ooo  X+++++++++++",
"+++++++++++++  X  ++++++++++++++",
"+++++++++++++++X++++++++++++++++",
"++++++++++++++++++++++++++++++++",
"++++++++++++++++++++++++++++++++",
"++++++++++++++++++++++++++++++++",
"++++++++++++++++++++++++++++++++",
"++++++++++++++++++++++++++++++++",
"++++++++++++++++++++++++++++++++",
"++++++++++++++++++++++++++++++++",
"++++++++++++++++++++++++++++++++",
"++++++++++++++++++++++++++++++++"
};
